<svg width="344" height="298" viewBox="0 0 344 298" fill="none" xmlns="http://www.w3.org/2000/svg">
<path d="M64.5256 294.838C70.2828 290.247 71.2278 281.858 66.6364 276.101C62.045 270.344 53.6558 269.399 47.8987 273.99C42.1416 278.581 41.1966 286.971 45.788 292.728C50.3793 298.485 58.7685 299.43 64.5256 294.838ZM264.212 22.4142L263.182 20.1361L263.182 20.1361L264.212 22.4142ZM0.211724 0.414468L12.5725 26.5017L28.9843 2.7533L0.211724 0.414468ZM56.0763 286.91C57.8279 287.006 59.5714 287.088 61.3067 287.159L61.5086 282.163C59.7966 282.093 58.0764 282.012 56.348 281.918L56.0763 286.91ZM71.621 287.43C75.0265 287.471 78.3995 287.464 81.7399 287.408L81.6573 282.409C78.3648 282.464 75.0396 282.471 71.6815 282.43L71.621 287.43ZM92.1019 287.081C95.5442 286.92 98.9505 286.707 102.321 286.445L101.933 281.46C98.6142 281.718 95.2591 281.928 91.8679 282.086L92.1019 287.081ZM112.491 285.492C115.948 285.113 119.365 284.681 122.742 284.197L122.034 279.248C118.711 279.724 115.348 280.149 111.946 280.522L112.491 285.492ZM132.756 282.595C136.195 281.985 139.592 281.322 142.945 280.607L141.902 275.717C138.606 276.42 135.266 277.072 131.884 277.671L132.756 282.595ZM152.895 278.303C156.257 277.462 159.574 276.568 162.846 275.624L161.459 270.82C158.245 271.748 154.986 272.626 151.682 273.453L152.895 278.303ZM172.653 272.598C175.931 271.52 179.161 270.39 182.343 269.212L180.606 264.523C177.482 265.68 174.31 266.789 171.091 267.848L172.653 272.598ZM191.927 265.454C195.108 264.137 198.238 262.769 201.317 261.355L199.23 256.811C196.208 258.2 193.136 259.541 190.014 260.834L191.927 265.454ZM210.601 256.87C213.67 255.313 216.684 253.709 219.645 252.06L217.211 247.692C214.307 249.31 211.35 250.883 208.339 252.411L210.601 256.87ZM228.555 246.864C231.494 245.072 234.375 243.235 237.199 241.356L234.43 237.193C231.66 239.036 228.834 240.837 225.951 242.595L228.555 246.864ZM245.667 235.478C248.459 233.457 251.189 231.395 253.859 229.295L250.768 225.365C248.15 227.424 245.473 229.446 242.735 231.428L245.667 235.478ZM261.823 222.771C264.45 220.53 267.012 218.252 269.51 215.943L266.115 212.272C263.666 214.536 261.154 216.769 258.578 218.967L261.823 222.771ZM276.911 208.818C279.357 206.367 281.734 203.886 284.043 201.378L280.364 197.992C278.101 200.451 275.77 202.883 273.372 205.286L276.911 208.818ZM290.825 193.705C293.074 191.056 295.249 188.382 297.351 185.69L293.409 182.613C291.349 185.252 289.217 187.873 287.013 190.47L290.825 193.705ZM303.486 177.488C305.51 174.663 307.456 171.822 309.323 168.97L305.14 166.231C303.311 169.024 301.405 171.808 299.422 174.576L303.486 177.488ZM314.777 160.242C316.545 157.273 318.23 154.297 319.832 151.32L315.429 148.951C313.862 151.864 312.213 154.777 310.481 157.684L314.777 160.242ZM324.531 142.096C326.036 138.968 327.449 135.845 328.77 132.734L324.168 130.78C322.877 133.819 321.496 136.87 320.025 139.929L324.531 142.096ZM332.559 123.168C333.772 119.871 334.879 116.595 335.882 113.348L331.105 111.872C330.128 115.034 329.049 118.227 327.867 121.443L332.559 123.168ZM338.649 103.41C339.489 100.018 340.211 96.668 340.814 93.3684L335.895 92.4696C335.311 95.6643 334.612 98.9136 333.796 102.208L338.649 103.41ZM342.33 83.0718C342.722 79.5275 342.967 76.0575 343.065 72.6756L338.067 72.5312C337.974 75.7708 337.738 79.1054 337.36 82.522L342.33 83.0718ZM342.879 62.2438C342.636 58.6448 342.203 55.1735 341.579 51.8508L336.665 52.7738C337.25 55.8886 337.66 59.1635 337.891 62.5809L342.879 62.2438ZM338.893 41.6528C337.684 38.188 336.212 34.9487 334.471 31.9729L330.155 34.4975C331.718 37.1693 333.059 40.1108 334.171 43.2992L338.893 41.6528ZM327.985 23.4042C325.442 20.8051 322.579 18.5822 319.398 16.7848L316.938 21.1377C319.696 22.6963 322.187 24.6275 324.411 26.9008L327.985 23.4042ZM309.314 12.8163C305.992 12.0006 302.449 11.5544 298.694 11.4968L298.617 16.4962C302.024 16.5485 305.191 16.9524 308.122 17.6721L309.314 12.8163ZM288.091 12.2913C284.818 12.809 281.414 13.5811 277.88 14.6175L279.286 19.4155C282.633 18.4342 285.828 17.7114 288.872 17.2299L288.091 12.2913ZM268.174 18.0035C266.535 18.662 264.871 19.3726 263.182 20.1361L265.242 24.6922C266.869 23.9567 268.468 23.2741 270.039 22.6429L268.174 18.0035ZM263.182 20.1361C261.668 20.8207 260.157 21.4886 258.649 22.14L260.631 26.7301C262.165 26.0676 263.702 25.3884 265.242 24.6922L263.182 20.1361ZM249.638 25.8537C246.547 27.0666 243.471 28.2114 240.411 29.2907L242.074 34.006C245.189 32.9074 248.32 31.7422 251.464 30.5081L249.638 25.8537ZM231.113 32.3859C227.972 33.3697 224.848 34.2856 221.743 35.1365L223.065 39.9587C226.228 39.092 229.409 38.1591 232.607 37.1573L231.113 32.3859ZM212.249 37.5523C209.029 38.3085 205.832 38.9961 202.657 39.6182L203.618 44.5249C206.854 43.891 210.112 43.1903 213.392 42.4198L212.249 37.5523ZM193.017 41.3199C189.764 41.8314 186.536 42.2754 183.336 42.6556L183.926 47.6207C187.188 47.2331 190.478 46.7805 193.793 46.2592L193.017 41.3199ZM173.61 43.6248C170.314 43.8904 167.049 44.0898 163.817 44.227L164.029 49.2225C167.324 49.0826 170.652 48.8794 174.012 48.6087L173.61 43.6248ZM154.02 44.4571C150.718 44.4722 147.454 44.4242 144.228 44.3176L144.063 49.3148C147.35 49.4235 150.677 49.4725 154.043 49.4571L154.02 44.4571ZM134.452 43.8115C131.157 43.5793 127.907 43.288 124.703 42.9429L124.168 47.9142C127.432 48.2658 130.743 48.5625 134.101 48.7991L134.452 43.8115ZM114.993 41.7168C111.718 41.2424 108.496 40.7142 105.331 40.1385L104.437 45.0578C107.66 45.644 110.94 46.182 114.276 46.6651L114.993 41.7168ZM95.7286 38.214C92.4833 37.5033 89.3044 36.746 86.1949 35.9494L84.9541 40.793C88.1191 41.6038 91.3551 42.3748 94.6591 43.0983L95.7286 38.214ZM76.7402 33.351C73.5328 32.4093 70.4102 31.4309 67.3758 30.4252L65.8028 35.1713C68.8902 36.1946 72.0677 37.1902 75.3316 38.1485L76.7402 33.351ZM58.1163 27.1792C54.9562 26.0103 51.9099 24.8202 48.9822 23.6221L47.0885 28.2496C50.0673 29.4686 53.1666 30.6794 56.3817 31.8686L58.1163 27.1792ZM40.008 19.769C36.8675 18.3563 33.8989 16.9519 31.1101 15.5773L28.8994 20.062C31.7391 21.4617 34.7608 22.8912 37.9567 24.3289L40.008 19.769ZM22.4421 11.1082C19.2483 9.38634 16.3958 7.76152 13.9039 6.28578L11.3561 10.588C13.9029 12.0962 16.8138 13.7541 20.0693 15.5093L22.4421 11.1082ZM64.5256 294.838C70.2828 290.247 71.2278 281.858 66.6364 276.101C62.045 270.344 53.6558 269.399 47.8987 273.99C42.1416 278.581 41.1966 286.971 45.788 292.728C50.3793 298.485 58.7685 299.43 64.5256 294.838ZM264.212 22.4142L263.182 20.1361L263.182 20.1361L264.212 22.4142ZM0.211724 0.414468L12.5725 26.5017L28.9843 2.7533L0.211724 0.414468ZM56.0763 286.91C57.8279 287.006 59.5714 287.088 61.3067 287.159L61.5086 282.163C59.7966 282.093 58.0764 282.012 56.348 281.918L56.0763 286.91ZM71.621 287.43C75.0265 287.471 78.3995 287.464 81.7399 287.408L81.6573 282.409C78.3648 282.464 75.0396 282.471 71.6815 282.43L71.621 287.43ZM92.1019 287.081C95.5442 286.92 98.9505 286.707 102.321 286.445L101.933 281.46C98.6142 281.718 95.2591 281.928 91.8679 282.086L92.1019 287.081ZM112.491 285.492C115.948 285.113 119.365 284.681 122.742 284.197L122.034 279.248C118.711 279.724 115.348 280.149 111.946 280.522L112.491 285.492ZM132.756 282.595C136.195 281.985 139.592 281.322 142.945 280.607L141.902 275.717C138.606 276.42 135.266 277.072 131.884 277.671L132.756 282.595ZM152.895 278.303C156.257 277.462 159.574 276.568 162.846 275.624L161.459 270.82C158.245 271.748 154.986 272.626 151.682 273.453L152.895 278.303ZM172.653 272.598C175.931 271.52 179.161 270.39 182.343 269.212L180.606 264.523C177.482 265.68 174.31 266.789 171.091 267.848L172.653 272.598ZM191.927 265.454C195.108 264.137 198.238 262.769 201.317 261.355L199.23 256.811C196.208 258.2 193.136 259.541 190.014 260.834L191.927 265.454ZM210.601 256.87C213.67 255.313 216.684 253.709 219.645 252.06L217.211 247.692C214.307 249.31 211.35 250.883 208.339 252.411L210.601 256.87ZM228.555 246.864C231.494 245.072 234.375 243.235 237.199 241.356L234.43 237.193C231.66 239.036 228.834 240.837 225.951 242.595L228.555 246.864ZM245.667 235.478C248.459 233.457 251.189 231.395 253.859 229.295L250.768 225.365C248.15 227.424 245.473 229.446 242.735 231.428L245.667 235.478ZM261.823 222.771C264.45 220.53 267.012 218.252 269.51 215.943L266.115 212.272C263.666 214.536 261.154 216.769 258.578 218.967L261.823 222.771ZM276.911 208.818C279.357 206.367 281.734 203.886 284.043 201.378L280.364 197.992C278.101 200.451 275.77 202.883 273.372 205.286L276.911 208.818ZM290.825 193.705C293.074 191.056 295.249 188.382 297.351 185.69L293.409 182.613C291.349 185.252 289.217 187.873 287.013 190.47L290.825 193.705ZM303.486 177.488C305.51 174.663 307.456 171.822 309.323 168.97L305.14 166.231C303.311 169.024 301.405 171.808 299.422 174.576L303.486 177.488ZM314.777 160.242C316.545 157.273 318.23 154.297 319.832 151.32L315.429 148.951C313.862 151.864 312.213 154.777 310.481 157.684L314.777 160.242ZM324.531 142.096C326.036 138.968 327.449 135.845 328.77 132.734L324.168 130.78C322.877 133.819 321.496 136.87 320.025 139.929L324.531 142.096ZM332.559 123.168C333.772 119.871 334.879 116.595 335.882 113.348L331.105 111.872C330.128 115.034 329.049 118.227 327.867 121.443L332.559 123.168ZM338.649 103.41C339.489 100.018 340.211 96.668 340.814 93.3684L335.895 92.4696C335.311 95.6643 334.612 98.9136 333.796 102.208L338.649 103.41ZM342.33 83.0718C342.722 79.5275 342.967 76.0575 343.065 72.6756L338.067 72.5312C337.974 75.7708 337.738 79.1054 337.36 82.522L342.33 83.0718ZM342.879 62.2438C342.636 58.6448 342.203 55.1735 341.579 51.8508L336.665 52.7738C337.25 55.8886 337.66 59.1635 337.891 62.5809L342.879 62.2438ZM338.893 41.6528C337.684 38.188 336.212 34.9487 334.471 31.9729L330.155 34.4975C331.718 37.1693 333.059 40.1108 334.171 43.2992L338.893 41.6528ZM327.985 23.4042C325.442 20.8051 322.579 18.5822 319.398 16.7848L316.938 21.1377C319.696 22.6963 322.187 24.6275 324.411 26.9008L327.985 23.4042ZM309.314 12.8163C305.992 12.0006 302.449 11.5544 298.694 11.4968L298.617 16.4962C302.024 16.5485 305.191 16.9524 308.122 17.6721L309.314 12.8163ZM288.091 12.2913C284.818 12.809 281.414 13.5811 277.88 14.6175L279.286 19.4155C282.633 18.4342 285.828 17.7114 288.872 17.2299L288.091 12.2913ZM268.174 18.0035C266.535 18.662 264.871 19.3726 263.182 20.1361L265.242 24.6922C266.869 23.9567 268.468 23.2741 270.039 22.6429L268.174 18.0035ZM263.182 20.1361C261.668 20.8207 260.157 21.4886 258.649 22.14L260.631 26.7301C262.165 26.0676 263.702 25.3884 265.242 24.6922L263.182 20.1361ZM249.638 25.8537C246.547 27.0666 243.471 28.2114 240.411 29.2907L242.074 34.006C245.189 32.9074 248.32 31.7422 251.464 30.5081L249.638 25.8537ZM231.113 32.3859C227.972 33.3697 224.848 34.2856 221.743 35.1365L223.065 39.9587C226.228 39.092 229.409 38.1591 232.607 37.1573L231.113 32.3859ZM212.249 37.5523C209.029 38.3085 205.832 38.9961 202.657 39.6182L203.618 44.5249C206.854 43.891 210.112 43.1903 213.392 42.4198L212.249 37.5523ZM193.017 41.3199C189.764 41.8314 186.536 42.2754 183.336 42.6556L183.926 47.6207C187.188 47.2331 190.478 46.7805 193.793 46.2592L193.017 41.3199ZM173.61 43.6248C170.314 43.8904 167.049 44.0898 163.817 44.227L164.029 49.2225C167.324 49.0826 170.652 48.8794 174.012 48.6087L173.61 43.6248ZM154.02 44.4571C150.718 44.4722 147.454 44.4242 144.228 44.3176L144.063 49.3148C147.35 49.4235 150.677 49.4725 154.043 49.4571L154.02 44.4571ZM134.452 43.8115C131.157 43.5793 127.907 43.288 124.703 42.9429L124.168 47.9142C127.432 48.2658 130.743 48.5625 134.101 48.7991L134.452 43.8115ZM114.993 41.7168C111.718 41.2424 108.496 40.7142 105.331 40.1385L104.437 45.0578C107.66 45.644 110.94 46.182 114.276 46.6651L114.993 41.7168ZM95.7286 38.214C92.4833 37.5033 89.3044 36.746 86.1949 35.9494L84.9541 40.793C88.1191 41.6038 91.3551 42.3748 94.6591 43.0983L95.7286 38.214ZM76.7402 33.351C73.5328 32.4093 70.4102 31.4309 67.3758 30.4252L65.8028 35.1713C68.8902 36.1946 72.0677 37.1902 75.3316 38.1485L76.7402 33.351ZM58.1163 27.1792C54.9562 26.0103 51.9099 24.8202 48.9822 23.6221L47.0885 28.2496C50.0673 29.4686 53.1666 30.6794 56.3817 31.8686L58.1163 27.1792ZM40.008 19.769C36.8675 18.3563 33.8989 16.9519 31.1101 15.5773L28.8994 20.062C31.7391 21.4617 34.7608 22.8912 37.9567 24.3289L40.008 19.769ZM22.4421 11.1082C19.2483 9.38634 16.3958 7.76152 13.9039 6.28578L11.3561 10.588C13.9029 12.0962 16.8138 13.7541 20.0693 15.5093L22.4421 11.1082Z" fill="#F5F5F7"/>
</svg>
