<svg width="471" height="86" viewBox="0 0 471 86" fill="none" xmlns="http://www.w3.org/2000/svg">
<path d="M0.333333 28C0.333333 42.7276 12.2724 54.6667 27 54.6667C41.7276 54.6667 53.6667 42.7276 53.6667 28C53.6667 13.2724 41.7276 1.33333 27 1.33333C12.2724 1.33333 0.333333 13.2724 0.333333 28ZM471 0L418.696 24.4459L466.019 57.5197L471 0ZM27.5779 32.9665C32.8518 32.3528 38.0331 31.5222 43.167 30.5728L41.3486 20.7396C36.369 21.6604 31.4167 22.4523 26.4221 23.0335L27.5779 32.9665ZM73.4874 24.2697C83.0944 22.3008 92.94 20.5364 103.444 19.509L102.47 9.55649C91.4713 10.6323 81.2428 12.4724 71.4798 14.4733L73.4874 24.2697ZM133.509 18.9115C142.769 19.4734 152.651 20.7668 163.324 23.054L165.42 13.276C154.259 10.8843 143.879 9.52234 134.115 8.92985L133.509 18.9115ZM192.41 31.2194C201.302 34.273 210.702 37.9818 220.674 42.4511L224.764 33.3255C214.535 28.7417 204.855 24.92 195.658 21.7616L192.41 31.2194ZM248.09 55.9349C252.468 58.2684 256.945 60.7361 261.526 63.3448L266.474 54.6552C261.816 52.002 257.257 49.4891 252.794 47.1102L248.09 55.9349ZM261.526 63.3448C266.146 65.9766 270.712 68.3517 275.221 70.4839L279.496 61.4436C275.223 59.4231 270.882 57.1656 266.474 54.6552L261.526 63.3448ZM304.257 81.2046C314.903 84.0234 325.154 85.5038 334.983 85.8737L335.359 75.8808C326.278 75.539 316.759 74.1701 306.817 71.5378L304.257 81.2046ZM366.039 83.329C376.597 81.1734 386.46 77.811 395.589 73.6683L391.456 64.5621C382.943 68.4259 373.793 71.5396 364.039 73.5311L366.039 83.329ZM422.408 58.1522C431.372 51.7921 439.26 44.9527 446.016 38.3345L439.018 31.1912C432.577 37.5015 425.09 43.988 416.621 49.9964L422.408 58.1522ZM0.333333 28C0.333333 42.7276 12.2724 54.6667 27 54.6667C41.7276 54.6667 53.6667 42.7276 53.6667 28C53.6667 13.2724 41.7276 1.33333 27 1.33333C12.2724 1.33333 0.333333 13.2724 0.333333 28ZM471 0L418.696 24.4459L466.019 57.5197L471 0ZM27.5779 32.9665C32.8518 32.3528 38.0331 31.5222 43.167 30.5728L41.3486 20.7396C36.369 21.6604 31.4167 22.4523 26.4221 23.0335L27.5779 32.9665ZM73.4874 24.2697C83.0944 22.3008 92.94 20.5364 103.444 19.509L102.47 9.55649C91.4713 10.6323 81.2428 12.4724 71.4798 14.4733L73.4874 24.2697ZM133.509 18.9115C142.769 19.4734 152.651 20.7668 163.324 23.054L165.42 13.276C154.259 10.8843 143.879 9.52234 134.115 8.92985L133.509 18.9115ZM192.41 31.2194C201.302 34.273 210.702 37.9818 220.674 42.4511L224.764 33.3255C214.535 28.7417 204.855 24.92 195.658 21.7616L192.41 31.2194ZM248.09 55.9349C252.468 58.2684 256.945 60.7361 261.526 63.3448L266.474 54.6552C261.816 52.002 257.257 49.4891 252.794 47.1102L248.09 55.9349ZM261.526 63.3448C266.146 65.9766 270.712 68.3517 275.221 70.4839L279.496 61.4436C275.223 59.4231 270.882 57.1656 266.474 54.6552L261.526 63.3448ZM304.257 81.2046C314.903 84.0234 325.154 85.5038 334.983 85.8737L335.359 75.8808C326.278 75.539 316.759 74.1701 306.817 71.5378L304.257 81.2046ZM366.039 83.329C376.597 81.1734 386.46 77.811 395.589 73.6683L391.456 64.5621C382.943 68.4259 373.793 71.5396 364.039 73.5311L366.039 83.329ZM422.408 58.1522C431.372 51.7921 439.26 44.9527 446.016 38.3345L439.018 31.1912C432.577 37.5015 425.09 43.988 416.621 49.9964L422.408 58.1522Z" fill="#F5F5F7"/>
</svg>
