<svg width="454" height="149" viewBox="0 0 700 149" fill="none" xmlns="http://www.w3.org/2000/svg">
<path d="M0.666667 93.0079C0.666667 100.372 6.6362 106.341 14 106.341C21.3638 106.341 27.3333 100.372 27.3333 93.0079C27.3333 85.6441 21.3638 79.6745 14 79.6745C6.6362 79.6745 0.666667 85.6441 0.666667 93.0079ZM241.564 143.189L241.991 145.652L241.991 145.652L241.564 143.189ZM454 0L426.684 9.33746L448.429 28.3248L454 0ZM14.427 95.4712C16.0052 95.1976 17.5804 94.9833 19.1539 94.825L18.6535 89.8501C16.9633 90.0201 15.2701 90.2505 13.573 90.5446L14.427 95.4712ZM28.6847 94.5261C31.8552 94.6379 35.0319 94.9521 38.224 95.4443L38.986 90.5027C35.6167 89.9831 32.2439 89.6485 28.8609 89.5292L28.6847 94.5261ZM47.6727 97.3844C50.7502 98.1638 53.848 99.0827 56.9738 100.119L58.5479 95.3737C55.3237 94.3043 52.1097 93.3502 48.9002 92.5374L47.6727 97.3844ZM66.1587 103.451C69.1431 104.616 72.1552 105.866 75.2019 107.18L77.1828 102.59C74.0943 101.257 71.0274 99.9846 67.978 98.7933L66.1587 103.451ZM84.1996 111.186C87.1445 112.53 90.1217 113.915 93.1396 115.324L95.2556 110.794C92.2338 109.383 89.2408 107.991 86.2756 106.638L84.1996 111.186ZM102.103 119.513C105.065 120.891 108.067 122.278 111.111 123.657L113.175 119.102C110.152 117.733 107.167 116.354 104.213 114.98L102.103 119.513ZM120.186 127.676C123.202 128.977 126.263 130.259 129.371 131.508L131.235 126.868C128.172 125.637 125.15 124.372 122.166 123.085L120.186 127.676ZM138.679 135.084C141.772 136.214 144.912 137.302 148.104 138.336L149.644 133.579C146.517 132.566 143.435 131.499 140.396 130.388L138.679 135.084ZM157.668 141.216C160.85 142.1 164.082 142.922 167.368 143.671L168.48 138.796C165.274 138.065 162.117 137.262 159.006 136.398L157.668 141.216ZM177.189 145.657C180.437 146.229 183.736 146.724 187.088 147.134L187.695 142.171C184.432 141.772 181.22 141.29 178.056 140.733L177.189 145.657ZM197.053 148.081C200.338 148.304 203.673 148.441 207.06 148.485L207.125 143.485C203.83 143.442 200.587 143.309 197.391 143.093L197.053 148.081ZM217.075 148.341C220.357 148.205 223.687 147.98 227.066 147.658L226.593 142.681C223.303 142.994 220.062 143.213 216.868 143.346L217.075 148.341ZM237.003 146.453C238.654 146.209 240.317 145.943 241.991 145.652L241.137 140.726C239.504 141.009 237.883 141.269 236.274 141.506L237.003 146.453ZM241.991 145.652C243.653 145.364 245.313 145.051 246.972 144.714L245.976 139.814C244.363 140.142 242.75 140.446 241.137 140.726L241.991 145.652ZM256.862 142.418C260.119 141.569 263.369 140.633 266.609 139.615L265.111 134.845C261.946 135.839 258.776 136.752 255.601 137.579L256.862 142.418ZM276.203 136.36C279.362 135.209 282.508 133.987 285.639 132.698L283.737 128.074C280.666 129.338 277.583 130.535 274.491 131.662L276.203 136.36ZM294.917 128.672C297.976 127.278 301.017 125.825 304.038 124.32L301.808 119.844C298.836 121.325 295.847 122.753 292.843 124.123L294.917 128.672ZM313.004 119.672C315.965 118.079 318.904 116.439 321.819 114.759L319.322 110.427C316.447 112.084 313.551 113.7 310.634 115.27L313.004 119.672ZM330.486 109.604C333.357 107.845 336.2 106.052 339.015 104.229L336.296 100.032C333.516 101.833 330.707 103.605 327.874 105.341L330.486 109.604ZM347.408 98.6499C350.196 96.7502 352.952 94.8265 355.672 92.8848L352.767 88.8153C350.075 90.7365 347.35 92.6394 344.593 94.5179L347.408 98.6499ZM363.81 86.9478C366.522 84.9261 369.195 82.8918 371.825 80.8514L368.76 76.9009C366.155 78.9223 363.508 80.937 360.822 82.9387L363.81 86.9478ZM379.722 74.6067C382.366 72.4763 384.961 70.3461 387.503 68.2235L384.298 64.3855C381.778 66.4901 379.206 68.6017 376.585 70.7132L379.722 74.6067ZM395.171 61.7108C397.753 59.4798 400.273 57.2657 402.726 55.0771L399.396 51.3466C396.963 53.5179 394.464 55.7142 391.902 57.927L395.171 61.7108ZM410.165 48.3326C412.705 45.9931 415.16 43.6953 417.523 41.4509L414.08 37.8253C411.735 40.0528 409.299 42.333 406.778 44.6545L410.165 48.3326ZM424.785 34.4481C427.292 31.9932 429.67 29.6264 431.909 27.3658L428.357 23.8471C426.135 26.0904 423.775 28.4391 421.287 30.8755L424.785 34.4481ZM438.942 20.1534C441.507 17.4804 443.809 15.0334 445.828 12.8553L442.162 9.45566C440.161 11.6138 437.878 14.0401 435.334 16.6915L438.942 20.1534ZM0.666667 93.0079C0.666667 100.372 6.6362 106.341 14 106.341C21.3638 106.341 27.3333 100.372 27.3333 93.0079C27.3333 85.6441 21.3638 79.6745 14 79.6745C6.6362 79.6745 0.666667 85.6441 0.666667 93.0079ZM241.564 143.189L241.991 145.652L241.991 145.652L241.564 143.189ZM454 0L426.684 9.33746L448.429 28.3248L454 0ZM14.427 95.4712C16.0052 95.1976 17.5804 94.9833 19.1539 94.825L18.6535 89.8501C16.9633 90.0201 15.2701 90.2505 13.573 90.5446L14.427 95.4712ZM28.6847 94.5261C31.8552 94.6379 35.0319 94.9521 38.224 95.4443L38.986 90.5027C35.6167 89.9831 32.2439 89.6485 28.8609 89.5292L28.6847 94.5261ZM47.6727 97.3844C50.7502 98.1638 53.848 99.0827 56.9738 100.119L58.5479 95.3737C55.3237 94.3043 52.1097 93.3502 48.9002 92.5374L47.6727 97.3844ZM66.1587 103.451C69.1431 104.616 72.1552 105.866 75.2019 107.18L77.1828 102.59C74.0943 101.257 71.0274 99.9846 67.978 98.7933L66.1587 103.451ZM84.1996 111.186C87.1445 112.53 90.1217 113.915 93.1396 115.324L95.2556 110.794C92.2338 109.383 89.2408 107.991 86.2756 106.638L84.1996 111.186ZM102.103 119.513C105.065 120.891 108.067 122.278 111.111 123.657L113.175 119.102C110.152 117.733 107.167 116.354 104.213 114.98L102.103 119.513ZM120.186 127.676C123.202 128.977 126.263 130.259 129.371 131.508L131.235 126.868C128.172 125.637 125.15 124.372 122.166 123.085L120.186 127.676ZM138.679 135.084C141.772 136.214 144.912 137.302 148.104 138.336L149.644 133.579C146.517 132.566 143.435 131.499 140.396 130.388L138.679 135.084ZM157.668 141.216C160.85 142.1 164.082 142.922 167.368 143.671L168.48 138.796C165.274 138.065 162.117 137.262 159.006 136.398L157.668 141.216ZM177.189 145.657C180.437 146.229 183.736 146.724 187.088 147.134L187.695 142.171C184.432 141.772 181.22 141.29 178.056 140.733L177.189 145.657ZM197.053 148.081C200.338 148.304 203.673 148.441 207.06 148.485L207.125 143.485C203.83 143.442 200.587 143.309 197.391 143.093L197.053 148.081ZM217.075 148.341C220.357 148.205 223.687 147.98 227.066 147.658L226.593 142.681C223.303 142.994 220.062 143.213 216.868 143.346L217.075 148.341ZM237.003 146.453C238.654 146.209 240.317 145.943 241.991 145.652L241.137 140.726C239.504 141.009 237.883 141.269 236.274 141.506L237.003 146.453ZM241.991 145.652C243.653 145.364 245.313 145.051 246.972 144.714L245.976 139.814C244.363 140.142 242.75 140.446 241.137 140.726L241.991 145.652ZM256.862 142.418C260.119 141.569 263.369 140.633 266.609 139.615L265.111 134.845C261.946 135.839 258.776 136.752 255.601 137.579L256.862 142.418ZM276.203 136.36C279.362 135.209 282.508 133.987 285.639 132.698L283.737 128.074C280.666 129.338 277.583 130.535 274.491 131.662L276.203 136.36ZM294.917 128.672C297.976 127.278 301.017 125.825 304.038 124.32L301.808 119.844C298.836 121.325 295.847 122.753 292.843 124.123L294.917 128.672ZM313.004 119.672C315.965 118.079 318.904 116.439 321.819 114.759L319.322 110.427C316.447 112.084 313.551 113.7 310.634 115.27L313.004 119.672ZM330.486 109.604C333.357 107.845 336.2 106.052 339.015 104.229L336.296 100.032C333.516 101.833 330.707 103.605 327.874 105.341L330.486 109.604ZM347.408 98.6499C350.196 96.7502 352.952 94.8265 355.672 92.8848L352.767 88.8153C350.075 90.7365 347.35 92.6394 344.593 94.5179L347.408 98.6499ZM363.81 86.9478C366.522 84.9261 369.195 82.8918 371.825 80.8514L368.76 76.9009C366.155 78.9223 363.508 80.937 360.822 82.9387L363.81 86.9478ZM379.722 74.6067C382.366 72.4763 384.961 70.3461 387.503 68.2235L384.298 64.3855C381.778 66.4901 379.206 68.6017 376.585 70.7132L379.722 74.6067ZM395.171 61.7108C397.753 59.4798 400.273 57.2657 402.726 55.0771L399.396 51.3466C396.963 53.5179 394.464 55.7142 391.902 57.927L395.171 61.7108ZM410.165 48.3326C412.705 45.9931 415.16 43.6953 417.523 41.4509L414.08 37.8253C411.735 40.0528 409.299 42.333 406.778 44.6545L410.165 48.3326ZM424.785 34.4481C427.292 31.9932 429.67 29.6264 431.909 27.3658L428.357 23.8471C426.135 26.0904 423.775 28.4391 421.287 30.8755L424.785 34.4481ZM438.942 20.1534C441.507 17.4804 443.809 15.0334 445.828 12.8553L442.162 9.45566C440.161 11.6138 437.878 14.0401 435.334 16.6915L438.942 20.1534Z" fill="#F5F5F7"/>
</svg>
