<svg width="529" height="118" viewBox="0 0 529 118" fill="none" xmlns="http://www.w3.org/2000/svg">
<path d="M0.666667 73.1323C0.666667 80.4961 6.6362 86.4657 14 86.4657C21.3638 86.4657 27.3333 80.4961 27.3333 73.1323C27.3333 65.7685 21.3638 59.799 14 59.799C6.6362 59.799 0.666667 65.7685 0.666667 73.1323ZM280.351 112.59L280.641 115.073L280.351 112.59ZM528.996 3.05176e-05L500.38 3.80152L517.98 26.6831L528.996 3.05176e-05ZM14.2892 75.6156C15.8687 75.4316 17.446 75.2812 19.0215 75.1628L18.6469 70.1769C17.0044 70.3003 15.3592 70.4572 13.7108 70.6491L14.2892 75.6156ZM28.513 74.8248C31.6814 74.8335 34.8501 74.96 38.0248 75.1922L38.3895 70.2055C35.1051 69.9653 31.8192 69.8339 28.5267 69.8249L28.513 74.8248ZM47.521 76.1867C50.6548 76.6092 53.7999 77.122 56.9619 77.7135L57.8814 72.7988C54.6438 72.1931 51.4146 71.6664 48.1891 71.2315L47.521 76.1867ZM66.3543 79.6784C69.4484 80.3893 72.5624 81.1631 75.7015 81.9891L76.9739 77.1537C73.7912 76.3162 70.6259 75.5296 67.474 74.8054L66.3543 79.6784ZM84.9853 84.5517C88.0453 85.4315 91.1314 86.3494 94.2488 87.2961L95.7017 82.5118C92.5666 81.5598 89.4561 80.6346 86.3669 79.7464L84.9853 84.5517ZM103.506 90.153C106.557 91.1058 109.637 92.0752 112.754 93.0547L114.253 88.2846C111.139 87.3063 108.053 86.3348 104.997 85.3803L103.506 90.153ZM122.014 95.9488C125.075 96.8979 128.172 97.8476 131.308 98.7902L132.747 94.0019C129.629 93.0645 126.546 92.1191 123.494 91.1731L122.014 95.9488ZM140.646 101.535C143.737 102.421 146.866 103.294 150.036 104.146L151.334 99.3171C148.193 98.473 145.091 97.6081 142.024 96.729L140.646 101.535ZM159.481 106.587C162.605 107.36 165.769 108.109 168.976 108.827L170.068 103.948C166.9 103.238 163.773 102.499 160.683 101.733L159.481 106.587ZM178.521 110.841C181.679 111.466 184.878 112.056 188.122 112.608L188.961 107.679C185.763 107.135 182.607 106.552 179.492 105.936L178.521 110.841ZM197.773 114.111C200.961 114.561 204.192 114.971 207.467 115.335L208.02 110.366C204.795 110.007 201.613 109.604 198.472 109.16L197.773 114.111ZM217.197 116.269C220.407 116.529 223.659 116.742 226.955 116.907L227.204 111.913C223.96 111.751 220.76 111.541 217.599 111.286L217.197 116.269ZM236.731 117.243C239.952 117.304 243.213 117.317 246.516 117.278L246.457 112.278C243.205 112.317 239.996 112.304 236.826 112.244L236.731 117.243ZM256.272 117.013C259.48 116.878 262.727 116.693 266.015 116.455L265.654 111.468C262.417 111.702 259.219 111.884 256.061 112.018L256.272 117.013ZM275.738 115.608C277.363 115.443 278.997 115.265 280.641 115.073L280.062 110.107C278.442 110.295 276.832 110.471 275.232 110.634L275.738 115.608ZM280.641 115.073C282.283 114.882 283.925 114.677 285.566 114.457L284.904 109.501C283.29 109.717 281.676 109.919 280.062 110.107L280.641 115.073ZM295.391 112.981C298.654 112.437 301.911 111.842 305.161 111.198L304.19 106.293C300.988 106.927 297.78 107.514 294.569 108.049L295.391 112.981ZM314.868 109.129C318.092 108.395 321.306 107.615 324.509 106.793L323.267 101.95C320.106 102.761 316.935 103.53 313.756 104.254L314.868 109.129ZM334.085 104.206C337.267 103.303 340.436 102.362 343.59 101.385L342.11 96.6089C338.994 97.5744 335.863 98.5046 332.72 99.3962L334.085 104.206ZM353.022 98.3441C356.159 97.2936 359.279 96.2104 362.379 95.0978L360.689 90.3918C357.622 91.4926 354.537 92.564 351.434 93.6028L353.022 98.3441ZM371.667 91.6555C374.764 90.4721 377.838 89.2618 380.888 88.0281L379.012 83.3931C375.992 84.615 372.948 85.8134 369.883 86.9849L371.667 91.6555ZM390.034 84.2276C393.087 82.9262 396.112 81.6037 399.107 80.2639L397.065 75.6999C394.096 77.028 391.099 78.3386 388.074 79.6282L390.034 84.2276ZM408.105 76.1458C411.114 74.7376 414.09 73.3148 417.028 71.8812L414.836 67.3875C411.921 68.8095 408.97 70.2206 405.986 71.617L408.105 76.1458ZM425.878 67.477C428.847 65.9703 431.774 64.4562 434.655 62.9389L432.325 58.5148C429.465 60.0207 426.561 61.5232 423.615 63.0181L425.878 67.477ZM443.378 58.2629C446.316 56.6599 449.201 55.0581 452.029 53.4625L449.572 49.1078C446.764 50.692 443.9 52.2822 440.983 53.8735L443.378 58.2629ZM460.608 48.5428C463.514 46.8496 466.35 45.1695 469.112 43.5087L466.536 39.2236C463.792 40.8729 460.976 42.5414 458.091 44.2228L460.608 48.5428ZM477.546 38.3596C480.443 36.5644 483.243 34.8011 485.94 33.0781L483.249 28.8643C480.57 30.5755 477.789 32.3268 474.912 34.1097L477.546 38.3596ZM494.26 27.6843C497.147 25.7839 499.887 23.9509 502.47 22.1991L499.664 18.0611C497.099 19.8003 494.379 21.6204 491.511 23.5076L494.26 27.6843ZM510.626 16.5808C513.616 14.4883 516.301 12.5712 518.66 10.8628L515.728 6.81322C513.389 8.50653 510.726 10.408 507.759 12.4844L510.626 16.5808ZM0.666667 73.1323C0.666667 80.4961 6.6362 86.4657 14 86.4657C21.3638 86.4657 27.3333 80.4961 27.3333 73.1323C27.3333 65.7685 21.3638 59.799 14 59.799C6.6362 59.799 0.666667 65.7685 0.666667 73.1323ZM280.351 112.59L280.641 115.073L280.351 112.59ZM528.996 3.05176e-05L500.38 3.80152L517.98 26.6831L528.996 3.05176e-05ZM14.2892 75.6156C15.8687 75.4316 17.446 75.2812 19.0215 75.1628L18.6469 70.1769C17.0044 70.3003 15.3592 70.4572 13.7108 70.6491L14.2892 75.6156ZM28.513 74.8248C31.6814 74.8335 34.8501 74.96 38.0248 75.1922L38.3895 70.2055C35.1051 69.9653 31.8192 69.8339 28.5267 69.8249L28.513 74.8248ZM47.521 76.1867C50.6548 76.6092 53.7999 77.122 56.9619 77.7135L57.8814 72.7988C54.6438 72.1931 51.4146 71.6664 48.1891 71.2315L47.521 76.1867ZM66.3543 79.6784C69.4484 80.3893 72.5624 81.1631 75.7015 81.9891L76.9739 77.1537C73.7912 76.3162 70.6259 75.5296 67.474 74.8054L66.3543 79.6784ZM84.9853 84.5517C88.0453 85.4315 91.1314 86.3494 94.2488 87.2961L95.7017 82.5118C92.5666 81.5598 89.4561 80.6346 86.3669 79.7464L84.9853 84.5517ZM103.506 90.153C106.557 91.1058 109.637 92.0752 112.754 93.0547L114.253 88.2846C111.139 87.3063 108.053 86.3348 104.997 85.3803L103.506 90.153ZM122.014 95.9488C125.075 96.8979 128.172 97.8476 131.308 98.7902L132.747 94.0019C129.629 93.0645 126.546 92.1191 123.494 91.1731L122.014 95.9488ZM140.646 101.535C143.737 102.421 146.866 103.294 150.036 104.146L151.334 99.3171C148.193 98.473 145.091 97.6081 142.024 96.729L140.646 101.535ZM159.481 106.587C162.605 107.36 165.769 108.109 168.976 108.827L170.068 103.948C166.9 103.238 163.773 102.499 160.683 101.733L159.481 106.587ZM178.521 110.841C181.679 111.466 184.878 112.056 188.122 112.608L188.961 107.679C185.763 107.135 182.607 106.552 179.492 105.936L178.521 110.841ZM197.773 114.111C200.961 114.561 204.192 114.971 207.467 115.335L208.02 110.366C204.795 110.007 201.613 109.604 198.472 109.16L197.773 114.111ZM217.197 116.269C220.407 116.529 223.659 116.742 226.955 116.907L227.204 111.913C223.96 111.751 220.76 111.541 217.599 111.286L217.197 116.269ZM236.731 117.243C239.952 117.304 243.213 117.317 246.516 117.278L246.457 112.278C243.205 112.317 239.996 112.304 236.826 112.244L236.731 117.243ZM256.272 117.013C259.48 116.878 262.727 116.693 266.015 116.455L265.654 111.468C262.417 111.702 259.219 111.884 256.061 112.018L256.272 117.013ZM275.738 115.608C277.363 115.443 278.997 115.265 280.641 115.073L280.062 110.107C278.442 110.295 276.832 110.471 275.232 110.634L275.738 115.608ZM280.641 115.073C282.283 114.882 283.925 114.677 285.566 114.457L284.904 109.501C283.29 109.717 281.676 109.919 280.062 110.107L280.641 115.073ZM295.391 112.981C298.654 112.437 301.911 111.842 305.161 111.198L304.19 106.293C300.988 106.927 297.78 107.514 294.569 108.049L295.391 112.981ZM314.868 109.129C318.092 108.395 321.306 107.615 324.509 106.793L323.267 101.95C320.106 102.761 316.935 103.53 313.756 104.254L314.868 109.129ZM334.085 104.206C337.267 103.303 340.436 102.362 343.59 101.385L342.11 96.6089C338.994 97.5744 335.863 98.5046 332.72 99.3962L334.085 104.206ZM353.022 98.3441C356.159 97.2936 359.279 96.2104 362.379 95.0978L360.689 90.3918C357.622 91.4926 354.537 92.564 351.434 93.6028L353.022 98.3441ZM371.667 91.6555C374.764 90.4721 377.838 89.2618 380.888 88.0281L379.012 83.3931C375.992 84.615 372.948 85.8134 369.883 86.9849L371.667 91.6555ZM390.034 84.2276C393.087 82.9262 396.112 81.6037 399.107 80.2639L397.065 75.6999C394.096 77.028 391.099 78.3386 388.074 79.6282L390.034 84.2276ZM408.105 76.1458C411.114 74.7376 414.09 73.3148 417.028 71.8812L414.836 67.3875C411.921 68.8095 408.97 70.2206 405.986 71.617L408.105 76.1458ZM425.878 67.477C428.847 65.9703 431.774 64.4562 434.655 62.9389L432.325 58.5148C429.465 60.0207 426.561 61.5232 423.615 63.0181L425.878 67.477ZM443.378 58.2629C446.316 56.6599 449.201 55.0581 452.029 53.4625L449.572 49.1078C446.764 50.692 443.9 52.2822 440.983 53.8735L443.378 58.2629ZM460.608 48.5428C463.514 46.8496 466.35 45.1695 469.112 43.5087L466.536 39.2236C463.792 40.8729 460.976 42.5414 458.091 44.2228L460.608 48.5428ZM477.546 38.3596C480.443 36.5644 483.243 34.8011 485.94 33.0781L483.249 28.8643C480.57 30.5755 477.789 32.3268 474.912 34.1097L477.546 38.3596ZM494.26 27.6843C497.147 25.7839 499.887 23.9509 502.47 22.1991L499.664 18.0611C497.099 19.8003 494.379 21.6204 491.511 23.5076L494.26 27.6843ZM510.626 16.5808C513.616 14.4883 516.301 12.5712 518.66 10.8628L515.728 6.81322C513.389 8.50653 510.726 10.408 507.759 12.4844L510.626 16.5808Z" fill="#F5F5F7"/>
</svg>
